<svg xmlns="http://www.w3.org/2000/svg">
    <symbol id="service-1" viewBox="0 0 49.976 50">
        <path id="Path_2838" data-name="Path 2838" d="M112.333,288a8.333,8.333,0,1,0,8.333,8.333A8.333,8.333,0,0,0,112.333,288Zm0,15A6.667,6.667,0,1,1,119,296.333,6.666,6.666,0,0,1,112.333,303Zm0,0" transform="translate(-93.167 -258)" fill=""/>
        <path id="Path_2839" data-name="Path 2839" d="M155.333,322.5c1.018,0,1.667.493,1.667.833h1.667a2.72,2.72,0,0,0-2.5-2.417V320H154.5v.917a2.717,2.717,0,0,0-2.5,2.417c0,1.4,1.464,2.5,3.333,2.5,1.018,0,1.667.493,1.667.833s-.649.833-1.667.833-1.667-.493-1.667-.833H152a2.72,2.72,0,0,0,2.5,2.417V330h1.667v-.917a2.717,2.717,0,0,0,2.5-2.417c0-1.4-1.464-2.5-3.333-2.5-1.018,0-1.667-.493-1.667-.833S154.316,322.5,155.333,322.5Zm0,0" transform="translate(-136.167 -286.667)" fill=""/>
        <path id="Path_2840" data-name="Path 2840" d="M42.5,48.333H7.5v-20H20.833a2.5,2.5,0,0,0,2.5-2.5V5H32.5V15h10V26.667h1.667V13.822L33.678,3.333H23.333V2.5a2.5,2.5,0,0,0-2.5-2.5H2.5A2.5,2.5,0,0,0,0,2.5V25.833a2.5,2.5,0,0,0,2.5,2.5H5.833V50H44.167V38.333H42.5ZM34.167,6.178l7.155,7.155H34.167ZM1.667,25.833V2.5A.833.833,0,0,1,2.5,1.667H20.833a.833.833,0,0,1,.833.833V25.833a.833.833,0,0,1-.833.833H2.5A.833.833,0,0,1,1.667,25.833Zm0,0" fill=""/>
        <path id="Path_2841" data-name="Path 2841" d="M256,200h1.667v1.667H256Zm0,0" transform="translate(-229.333 -179.167)" fill=""/>
        <path id="Path_2842" data-name="Path 2842" d="M288,200h10v1.667H288Zm0,0" transform="translate(-258 -179.167)" fill=""/>
        <path id="Path_2843" data-name="Path 2843" d="M256,168h1.667v1.667H256Zm0,0" transform="translate(-229.333 -150.5)" fill=""/>
        <path id="Path_2844" data-name="Path 2844" d="M288,168h10v1.667H288Zm0,0" transform="translate(-258 -150.5)" fill=""/>
        <path id="Path_2845" data-name="Path 2845" d="M256,232h1.667v1.667H256Zm0,0" transform="translate(-229.333 -207.833)" fill=""/>
        <path id="Path_2846" data-name="Path 2846" d="M288,232h10v1.667H288Zm0,0" transform="translate(-258 -207.833)" fill=""/>
        <path id="Path_2847" data-name="Path 2847" d="M256,264h1.667v1.667H256Zm0,0" transform="translate(-229.333 -236.5)" fill=""/>
        <path id="Path_2848" data-name="Path 2848" d="M288,264h10v1.667H288Zm0,0" transform="translate(-258 -236.5)" fill=""/>
        <path id="Path_2849" data-name="Path 2849" d="M42.333,24H24v5.833H42.333Zm-1.667,4.167h-15v-2.5h15Zm0,0" transform="translate(-21.5 -21.5)" fill=""/>
        <path id="Path_2850" data-name="Path 2850" d="M35.333,88H33.667A1.667,1.667,0,0,0,32,89.667v1.667A1.667,1.667,0,0,0,33.667,93h1.667A1.667,1.667,0,0,0,37,91.333V89.667A1.667,1.667,0,0,0,35.333,88Zm-1.667,3.333V89.667h1.667v1.667Zm0,0" transform="translate(-28.667 -78.833)" fill=""/>
        <path id="Path_2851" data-name="Path 2851" d="M91.333,88H89.667A1.667,1.667,0,0,0,88,89.667v1.667A1.667,1.667,0,0,0,89.667,93h1.667A1.667,1.667,0,0,0,93,91.333V89.667A1.667,1.667,0,0,0,91.333,88Zm-1.667,3.333V89.667h1.667v1.667Zm0,0" transform="translate(-78.833 -78.833)" fill=""/>
        <path id="Path_2852" data-name="Path 2852" d="M147.333,88h-1.667A1.667,1.667,0,0,0,144,89.667v1.667A1.667,1.667,0,0,0,145.667,93h1.667A1.667,1.667,0,0,0,149,91.333V89.667A1.667,1.667,0,0,0,147.333,88Zm-1.667,3.333V89.667h1.667v1.667Zm0,0" transform="translate(-129 -78.833)" fill=""/>
        <path id="Path_2853" data-name="Path 2853" d="M35.333,144H33.667A1.667,1.667,0,0,0,32,145.667v1.667A1.667,1.667,0,0,0,33.667,149h1.667A1.667,1.667,0,0,0,37,147.333v-1.667A1.667,1.667,0,0,0,35.333,144Zm-1.667,3.333v-1.667h1.667v1.667Zm0,0" transform="translate(-28.667 -129)" fill=""/>
        <path id="Path_2854" data-name="Path 2854" d="M91.333,144H89.667A1.667,1.667,0,0,0,88,145.667v1.667A1.667,1.667,0,0,0,89.667,149h1.667A1.667,1.667,0,0,0,93,147.333v-1.667A1.667,1.667,0,0,0,91.333,144Zm-1.667,3.333v-1.667h1.667v1.667Zm0,0" transform="translate(-78.833 -129)" fill=""/>
        <path id="Path_2855" data-name="Path 2855" d="M147.333,144h-1.667A1.667,1.667,0,0,0,144,145.667v1.667A1.667,1.667,0,0,0,145.667,149h1.667A1.667,1.667,0,0,0,149,147.333v-1.667A1.667,1.667,0,0,0,147.333,144Zm-1.667,3.333v-1.667h1.667v1.667Zm0,0" transform="translate(-129 -129)" fill=""/>
        <path id="Path_2856" data-name="Path 2856" d="M35.333,200H33.667A1.667,1.667,0,0,0,32,201.667v1.667A1.667,1.667,0,0,0,33.667,205h1.667A1.667,1.667,0,0,0,37,203.333v-1.667A1.667,1.667,0,0,0,35.333,200Zm-1.667,3.333v-1.667h1.667v1.667Zm0,0" transform="translate(-28.667 -179.167)" fill=""/>
        <path id="Path_2857" data-name="Path 2857" d="M91.333,200H89.667A1.667,1.667,0,0,0,88,201.667v1.667A1.667,1.667,0,0,0,89.667,205h1.667A1.667,1.667,0,0,0,93,203.333v-1.667A1.667,1.667,0,0,0,91.333,200Zm-1.667,3.333v-1.667h1.667v1.667Zm0,0" transform="translate(-78.833 -179.167)" fill=""/>
        <path id="Path_2858" data-name="Path 2858" d="M147.333,200h-1.667A1.667,1.667,0,0,0,144,201.667v1.667A1.667,1.667,0,0,0,145.667,205h1.667A1.667,1.667,0,0,0,149,203.333v-1.667A1.667,1.667,0,0,0,147.333,200Zm-1.667,3.333v-1.667h1.667v1.667Zm0,0" transform="translate(-129 -179.167)" fill=""/>
        <path id="Path_2859" data-name="Path 2859" d="M300.089,249.174a2.559,2.559,0,0,0-3.535,0L282.268,263.46a.843.843,0,0,0-.167.241l-2.012,4.368a.834.834,0,0,0,1.105,1.105l4.368-2.012A.835.835,0,0,0,285.8,267l14.285-14.286A2.5,2.5,0,0,0,300.089,249.174ZM284.73,265.711l-2.183,1.006,1.006-2.183L294.2,253.881l1.178,1.178Zm11.833-11.833-1.178-1.178.583-.583,1.178,1.178Zm2.35-2.35-.589.589-1.178-1.178.59-.589a.852.852,0,0,1,1.178,0A.834.834,0,0,1,298.913,251.527Zm0,0" transform="translate(-250.846 -222.584)" fill=""/>
    </symbol>
    <symbol id="service-2" viewBox="0 0 49.975 50"> 
        <path id="Path_2834" data-name="Path 2834" d="M38.333,8.333a11.583,11.583,0,0,0-5,1.141A14.263,14.263,0,0,0,30.025,4.2,14.018,14.018,0,0,0,20,0,14.25,14.25,0,0,0,5.833,14.3v2.357A10.191,10.191,0,0,0,6.7,21.807a3.583,3.583,0,0,0,2.288,1.91,11.057,11.057,0,0,0,5.173,8.744V33.4a4.542,4.542,0,0,0-2.957,1.587h-.377A10.852,10.852,0,0,0,0,45.833v2.5A1.667,1.667,0,0,0,1.667,50H38.333a3.333,3.333,0,0,0,3.333-3.333V35a1.661,1.661,0,0,0-.833-1.435V31.39a11.667,11.667,0,0,0-2.5-23.057ZM20,1.667a12.363,12.363,0,0,1,8.841,3.7A12.577,12.577,0,0,1,31.855,10.3a11.724,11.724,0,0,0-1.8,1.483,8.555,8.555,0,0,0-5.241-4.2,2.394,2.394,0,0,0-1.948.295c-2.917,1.957-8.529,3.057-11.409,3.183a2.417,2.417,0,0,0-2.293,2.426v.958c-.051-.022-.1-.043-.157-.062a2.407,2.407,0,0,0-1.51-.02V14.3A12.583,12.583,0,0,1,20,1.667ZM10.656,23.606a1.65,1.65,0,0,0-1.183-1.478A1.959,1.959,0,0,1,8.2,21.065c-.7-1.408-.7-2.409-.7-4.4a.74.74,0,0,1,.3-.627.708.708,0,0,1,.656-.083c.583.208.713,1.256.713,1.606a.833.833,0,1,0,1.667,0h0v-4.07a.75.75,0,0,1,.7-.759c3.155-.139,9.044-1.306,12.255-3.46A.745.745,0,0,1,24.4,9.2a6.615,6.615,0,0,1,4.444,4.042,11.612,11.612,0,0,0-.167,13.3A9.363,9.363,0,0,1,20,32.488a9.256,9.256,0,0,1-6.615-2.767,9.533,9.533,0,0,1-2.729-6.116ZM20,38.318a3.686,3.686,0,0,1,2.609,1.208l-1.29,1.29H18.678L17.392,39.53A3.767,3.767,0,0,1,20,38.318Zm5.487-3.288a2.955,2.955,0,0,1,2,1c-.123,1.8-1.819,3.033-2.852,3.621-.051-.113-.116-.208-.173-.313a.743.743,0,0,0-.054-.1,4.942,4.942,0,0,0-1.7-1.779,6.53,6.53,0,0,0,2.783-2.431ZM23.395,41.1a.825.825,0,0,0,.39.461.844.844,0,0,0,.379.091.826.826,0,0,0,.309-.059,10.016,10.016,0,0,0,2.68-1.7c-.444,2.887-1.4,6.218-3.277,7.87l-1.292-5.84Zm-7.873.493a.826.826,0,0,0,.309.059.844.844,0,0,0,.379-.091.825.825,0,0,0,.39-.461l.818.817L16.084,47.9c-1.917-1.388-2.871-4.962-3.292-8.056a10,10,0,0,0,2.732,1.745ZM19,42.482h2l1.3,5.851H17.7Zm10.143-5.833h.023A9.148,9.148,0,0,1,35,38.757v7.91a3.3,3.3,0,0,0,.463,1.667h-9.8c2.858-3.3,3.383-9.442,3.478-11.682Zm6.69-3.084A1.661,1.661,0,0,0,35,35v1.7a10.819,10.819,0,0,0-5.833-1.714H28.79A4.542,4.542,0,0,0,25.833,33.4v-.936a11.093,11.093,0,0,0,4.024-4.468,11.651,11.651,0,0,0,5.976,3.4ZM20,34.155a10.9,10.9,0,0,0,4.169-.828l0,.657c-.2.425-1.145,1.991-4.167,2.645-3.036-.658-3.972-2.233-4.167-2.643v-.653A10.925,10.925,0,0,0,20,34.155Zm-5.489.876a6.53,6.53,0,0,0,2.777,2.428,4.943,4.943,0,0,0-1.7,1.779.744.744,0,0,0-.054.1c-.057.105-.122.2-.173.313-1.032-.588-2.728-1.819-2.852-3.621a2.957,2.957,0,0,1,2.006-1ZM1.667,45.833a9.183,9.183,0,0,1,9.166-9.182h.02c.087,2.271.574,8.54,3.268,11.682H1.667ZM40,46.667a1.667,1.667,0,1,1-3.333,0V35H40Zm-.833-13.333H37.5V31.624c.277.02.552.042.833.042s.557-.022.833-.042ZM38.333,30a10,10,0,1,1,10-10,10,10,0,0,1-10,10Z" fill=""/>
        <path id="Path_2835" data-name="Path 2835" d="M44.334,14a.833.833,0,1,0,0,1.667,6.673,6.673,0,1,1-3.7,1.126.834.834,0,0,0-.928-1.385A8.333,8.333,0,1,0,44.334,14Z" transform="translate(-6.001 -2.333)" fill=""/>
        <path id="Path_2836" data-name="Path 2836" d="M42.833,21.5a.833.833,0,0,0,.589-.244l.833-.833a.833.833,0,1,0-1.178-1.178l-.833.833a.833.833,0,0,0,.589,1.422Z" transform="translate(-7 -3.167)" fill=""/>
        <path id="Path_2837" data-name="Path 2837" d="M43.244,26.423a.833.833,0,0,0,1.178,0l5-5a.833.833,0,1,0-1.178-1.178l-5,5A.833.833,0,0,0,43.244,26.423Z" transform="translate(-7.167 -3.333)" fill=""/>
    </symbol>
    <symbol id="service-3" viewBox="0 0 51.165 50"> 
        <g id="Group_8473" data-name="Group 8473" transform="translate(0 -5.827)">
        <g id="Group_8472" data-name="Group 8472" transform="translate(0 5.827)">
        <g id="Group_8471" data-name="Group 8471" transform="translate(0 0)">
            <g id="Group_8470" data-name="Group 8470">
            <path id="Path_2860" data-name="Path 2860" d="M201.727,47.164a10.394,10.394,0,0,0,10.382-10.382q0-.156,0-.31a.749.749,0,1,0-1.5.044q0,.132,0,.266a8.875,8.875,0,1,1-.673-3.4.749.749,0,0,0,1.384-.574,10.383,10.383,0,1,0-9.595,14.353Z" transform="translate(-172.224 -24.345)" fill=""/>
            <path id="Path_2861" data-name="Path 2861" d="M288.438,76.937a.749.749,0,0,0-.749.749V80.46a1.882,1.882,0,0,0,3.764,0v-.22a.749.749,0,0,0-1.5,0v.22a.384.384,0,0,1-.767,0V77.686A.749.749,0,0,0,288.438,76.937Z" transform="translate(-258.94 -69.831)" fill=""/>
            <path id="Path_2862" data-name="Path 2862" d="M241.722,81.5a.749.749,0,0,0-.749.749v.22a1.882,1.882,0,1,0,3.764,0V77.686a.749.749,0,1,0-1.5,0v4.785a.384.384,0,1,1-.767,0v-.22a.749.749,0,0,0-.749-.749Z" transform="translate(-216.892 -69.831)" fill=""/>
            <path id="Path_2863" data-name="Path 2863" d="M301.347,141.541a2.782,2.782,0,0,0,.34.02,2.965,2.965,0,0,0,1.8-.6,3.2,3.2,0,0,0,.969-3.593.749.749,0,0,0-1.4.541,1.692,1.692,0,0,1-.5,1.877,1.473,1.473,0,0,1-1.028.268.746.746,0,0,1-.505-.246.749.749,0,0,0-1.185.917A2.217,2.217,0,0,0,301.347,141.541Z" transform="translate(-269.734 -123.793)" fill=""/>
            <path id="Path_2864" data-name="Path 2864" d="M286,142.514a.749.749,0,1,0,.274-1.023A.749.749,0,0,0,286,142.514Z" transform="translate(-257.329 -127.843)" fill=""/>
            <path id="Path_2865" data-name="Path 2865" d="M312.522,141.491a.749.749,0,1,0,1.023.274A.749.749,0,0,0,312.522,141.491Z" transform="translate(-280.954 -127.843)" fill=""/>
            <path id="Path_2866" data-name="Path 2866" d="M102.468,11.477a5.029,5.029,0,0,1,2.948,3.632.749.749,0,0,0,1.485,0,5.053,5.053,0,0,1,2.948-3.632.749.749,0,0,0,0-1.369A5.03,5.03,0,0,1,106.9,6.476a.749.749,0,0,0-1.485,0,5.053,5.053,0,0,1-2.948,3.631.749.749,0,0,0,0,1.369Zm3.69-2.768a6.462,6.462,0,0,0,1.877,2.084,6.463,6.463,0,0,0-1.877,2.084,6.463,6.463,0,0,0-1.877-2.084A6.462,6.462,0,0,0,106.158,8.709Z" transform="translate(-91.828 -5.827)" fill=""/>
            <path id="Path_2867" data-name="Path 2867" d="M50.857,278.836a3.387,3.387,0,0,0-4.267-1.764l-1.937.8a2.919,2.919,0,0,0-.189-1.439,2.953,2.953,0,0,0-3.6-1.714l-9.713,3.663a3.343,3.343,0,0,0-4.8-2.5l-7.835,3.918-2.961-.669-.059-.011a8.531,8.531,0,0,0-6.423,2.212v-2.234a1.4,1.4,0,0,0-1.4-1.4H1.4a1.4,1.4,0,0,0-1.4,1.4v17.236a1.4,1.4,0,0,0,1.4,1.4H7.667a1.4,1.4,0,0,0,1.4-1.4V295.22h3.182a22.882,22.882,0,0,1,4.927.743,23.654,23.654,0,0,0,5.174.77,9.642,9.642,0,0,0,4.027-.832c1.7-.764,7.1-3.82,12.314-6.775,4.6-2.6,8.942-5.065,10.564-5.854A3.36,3.36,0,0,0,50.857,278.836Zm-19.886,1.213,10.357-3.908a1.448,1.448,0,0,1,1.745.846,1.438,1.438,0,0,1-.666,1.808l-10.746,4.431a4.428,4.428,0,0,1-1.555.281H26.578l2.972-1.765a3.345,3.345,0,0,0,1.42-1.694ZM48.6,281.925c-1.665.81-6.028,3.281-10.647,5.9-5.188,2.938-10.553,5.977-12.189,6.712-2.711,1.217-5.406.61-8.259-.033a24,24,0,0,0-5.257-.78H9.069v-2.932a.749.749,0,1,0-1.5,0v5.442H1.5V279.188H7.571v8.065a.749.749,0,1,0,1.5,0v-3.922a.747.747,0,0,0,.222-.167c.027-.03,2.766-3.008,5.961-2.571l3.191.721a.749.749,0,0,0,.5-.061l8.074-4.037a1.847,1.847,0,0,1,1.769,3.24l-9.106,5.406a.749.749,0,0,0,.765,1.288l3.61-2.144h6.051a5.918,5.918,0,0,0,2.093-.381l.022-.008,14.907-6.146a1.881,1.881,0,0,1,1.475,3.455Z" transform="translate(0 -247.729)" fill=""/>
            <path id="Path_2868" data-name="Path 2868" d="M405.511,162.882a5.971,5.971,0,0,1,3.5,4.322.749.749,0,0,0,1.485,0,6.012,6.012,0,0,1,3.5-4.322.749.749,0,0,0,0-1.369,5.972,5.972,0,0,1-3.5-4.322.749.749,0,0,0-1.485,0,6.012,6.012,0,0,1-3.5,4.322.749.749,0,0,0,0,1.369Zm4.245-3.363a7.411,7.411,0,0,0,2.4,2.678,7.411,7.411,0,0,0-2.4,2.678,7.413,7.413,0,0,0-2.4-2.678A7.415,7.415,0,0,0,409.756,159.52Z" transform="translate(-364.587 -141.481)" fill=""/>
            </g>
        </g>
        </g>
        </g>
    </symbol>
    <symbol id="service-4" viewBox="0 0 49.999 50"> 
        <g id="Group_8475" data-name="Group 8475" transform="translate(-0.004)">
            <g id="Group_8474" data-name="Group 8474" transform="translate(0.004 0)">
                <path id="Path_2869" data-name="Path 2869" d="M114.964,136.055h12.418a.733.733,0,0,0,0-1.465H114.964A.733.733,0,0,0,114.964,136.055Z" transform="translate(-103.096 -121.446)" fill=""/>
                <path id="Path_2870" data-name="Path 2870" d="M114.964,194.189h0l10.172-.008a.734.734,0,0,0,0-1.465l-10.172.008A.733.733,0,0,0,114.964,194.189Z" transform="translate(-103.097 -173.897)" fill=""/>
                <path id="Path_2871" data-name="Path 2871" d="M114.964,252.394h0l8.512-.008a.734.734,0,0,0,0-1.465l-8.512.008A.733.733,0,0,0,114.964,252.394Z" transform="translate(-103.096 -226.418)" fill=""/>
                <path id="Path_2872" data-name="Path 2872" d="M114.964,310.6h0l8.673-.008a.734.734,0,0,0,0-1.465l-8.673.008A.733.733,0,0,0,114.964,310.6Z" transform="translate(-103.097 -278.939)" fill=""/>
                <path id="Path_2873" data-name="Path 2873" d="M127.407,367.332h0l-12.219.008a.734.734,0,0,0,0,1.465l12.219-.008A.733.733,0,0,0,127.407,367.332Z" transform="translate(-103.32 -331.46)" fill=""/>
                <path id="Path_2874" data-name="Path 2874" d="M127.245,425.537h0l-12.058.008a.734.734,0,0,0,0,1.465L127.246,427A.733.733,0,0,0,127.245,425.537Z" transform="translate(-103.319 -383.981)" fill=""/>
                <path id="Path_2875" data-name="Path 2875" d="M50,26.052a.8.8,0,0,0-.043-.28L46.281,15.658a.875.875,0,0,0-.732-.542H42.013A5.166,5.166,0,0,0,37.6,10.751V7.078a1.7,1.7,0,0,0-1.7-1.7H34.844V4.462a1.7,1.7,0,0,0-1.7-1.7H32.084V1.7a1.7,1.7,0,0,0-1.7-1.7H1.7A1.7,1.7,0,0,0,0,1.7V42.922a1.7,1.7,0,0,0,1.7,1.7H2.764v1.06a1.7,1.7,0,0,0,1.7,1.7l1.054,0V48.3a1.7,1.7,0,0,0,1.7,1.7H30.1a.751.751,0,0,0,.523-.22l6.762-6.729a.732.732,0,0,0,.216-.519V37.441h1.39a.733.733,0,0,0,0-1.465H29.929a2.549,2.549,0,0,1,2.436-1.812h9.091a2.549,2.549,0,0,1,2.436,1.812H42.86a.733.733,0,0,0,0,1.465h1.873a.732.732,0,0,0,.732-.732A4.013,4.013,0,0,0,41.456,32.7H39.041V16.592l5.528-.012-3.343,9.191a.742.742,0,0,0-.043.29,4.41,4.41,0,0,0,8.82,0s0-.007,0-.01Zm-1.777-.762H42.96l2.633-7.239Zm-7.7-10.174H33.3a3.691,3.691,0,0,1,7.231,0ZM4.465,45.919a.237.237,0,0,1-.236-.236V15.725a.733.733,0,0,0-1.465,0V43.158H1.7a.236.236,0,0,1-.236-.236V1.7A.236.236,0,0,1,1.7,1.465H30.383a.236.236,0,0,1,.236.236v1.06H4.465a1.7,1.7,0,0,0-1.7,1.7v7.6a.733.733,0,0,0,1.465,0v-7.6a.236.236,0,0,1,.236-.236H33.143a.236.236,0,0,1,.236.236v.914H7.222a1.7,1.7,0,0,0-1.7,1.7V45.916Zm26.369,1.574V43.438a.237.237,0,0,1,.236-.236h4.037Zm5.412-14.8V16.6h1.33V32.692Zm-1.465.007H32.366a4.013,4.013,0,0,0-4.009,4.009.732.732,0,0,0,.732.732h7.047v4.3H31.07a1.7,1.7,0,0,0-1.7,1.7v5.1H7.222a.236.236,0,0,1-.236-.236V7.078a.236.236,0,0,1,.236-.236H35.9a.237.237,0,0,1,.236.236v3.684a5.167,5.167,0,0,0-4.327,4.354H28.273a.875.875,0,0,0-.732.542L23.863,25.772a.742.742,0,0,0-.043.29,4.41,4.41,0,0,0,8.82,0,.744.744,0,0,0-.043-.29l-3.343-9.191,5.528.012V32.7ZM25.6,25.29l2.633-7.239,2.633,7.239Zm5.487,1.465a2.947,2.947,0,0,1-5.708,0Zm14.51,2.214a2.951,2.951,0,0,1-2.854-2.214h5.708A2.951,2.951,0,0,1,45.593,28.968Z" transform="translate(-0.004 0)" fill=""/>
            </g>
        </g>
    </symbol>
    <symbol id="service-5" viewBox="0 0 50 50"> 
        <g id="Group_8477" data-name="Group 8477" transform="translate(-1 -1)">
            <g id="Group_8476" data-name="Group 8476" transform="translate(1 1)">
            <path id="Path_2876" data-name="Path 2876" d="M48.032,20.29V18.677a2.419,2.419,0,1,0,0-4.839H46.419a.806.806,0,0,1,0-1.613h2.419v.806h1.613V10.613H48.032V9H46.419v1.613a2.419,2.419,0,1,0,0,4.839h1.613a.806.806,0,0,1,0,1.613H45.613v-.806H44v2.419h2.419V20.29Z" transform="translate(-9.323 -2.548)" fill=""/>
            <path id="Path_2877" data-name="Path 2877" d="M54.742,13.871a8.871,8.871,0,1,0-8.871,8.871A8.881,8.881,0,0,0,54.742,13.871Zm-16.129,0a7.258,7.258,0,1,1,7.258,7.258A7.266,7.266,0,0,1,38.613,13.871Z" transform="translate(-7.968 -1.774)" fill=""/>
            <path id="Path_2878" data-name="Path 2878" d="M51,13.1A12.1,12.1,0,1,0,34.553,24.371L32.924,26H26.44L20.8,32.452H11.131L1.215,43.194,2.4,44.289l9.438-10.224h9.691l5.645-6.452h6.419L36.3,24.9a12.04,12.04,0,0,0,2.285.273l-4.049,4.048H27.21l-4.839,6.452h-9.64L1,49.084V51H47.774V21.294A12.039,12.039,0,0,0,51,13.1Zm-22.581,0A10.484,10.484,0,1,1,38.9,23.581,10.5,10.5,0,0,1,28.419,13.1Zm12.9,11.853V49.387H38.1V27.947l2.956-2.956C41.142,24.975,41.234,24.968,41.323,24.95ZM35.2,30.839l1.279-1.279V49.387H33.258V30.839ZM12.29,49.387H9.065v-7.07l3.226-3.686ZM13.9,37.29h3.226v12.1H13.9Zm4.839,0h3.226v12.1H18.742Zm4.839-.538,3.226-4.3V49.387H23.581Zm4.839-5.914h3.226V49.387H28.419ZM7.452,44.16v5.227H2.878Zm35.484,5.227v-24.9a12.074,12.074,0,0,0,3.226-1.736V49.387Z" transform="translate(-1 -1)" fill=""/>
            <path id="Path_2879" data-name="Path 2879" d="M6.613,34.129H8.226V30.9H9.839V21.226H8.226V18H6.613v3.226H5V30.9H6.613Zm0-11.29H8.226V29.29H6.613Z" transform="translate(-1.774 -4.29)" fill=""/>
            <path id="Path_2880" data-name="Path 2880" d="M14.613,29.516h1.613V26.29h1.613V18.226H16.226V15H14.613v3.226H13V26.29h1.613Zm0-9.677h1.613v4.839H14.613Z" transform="translate(-3.323 -3.71)" fill=""/>
            <path id="Path_2881" data-name="Path 2881" d="M22.613,22.9h1.613V19.677h1.613V13.226H24.226V10H22.613v3.226H21v6.452h1.613Zm0-8.065h1.613v3.226H22.613Z" transform="translate(-4.871 -2.742)" fill=""/>
            </g>
        </g>
    </symbol>
    <symbol id="service-6" viewBox="0 0 50 50"> 
        <path id="Path_2882" data-name="Path 2882" d="M197.645,13.012l5.937-4.947h7.773V0H192V8.065h5.645Zm-4.032-6.56V1.613h16.129V6.452H203l-3.74,3.117V6.452Zm0,0" transform="translate(-172.645)" fill=""/>
        <path id="Path_2883" data-name="Path 2883" d="M224,32h1.613v1.613H224Zm0,0" transform="translate(-201.419 -28.774)" fill=""/>
        <path id="Path_2884" data-name="Path 2884" d="M256,32h6.452v1.613H256Zm0,0" transform="translate(-230.194 -28.774)" fill=""/>
        <path id="Path_2885" data-name="Path 2885" d="M336,32h1.613v1.613H336Zm0,0" transform="translate(-302.129 -28.774)" fill=""/>
        <path id="Path_2886" data-name="Path 2886" d="M41.052,156.29l-.652-6.528a5.649,5.649,0,0,0,4.761-5.568V133.71H41.935V132.6a2.9,2.9,0,0,0-1.571-2.586,4.82,4.82,0,0,0,1.571-3.558v-1.613a4.839,4.839,0,1,0-9.677,0v1.613a4.842,4.842,0,0,0,3.188,4.543l-4.328,4.328H26.6a3.234,3.234,0,0,0-2.322-2.89l-3.306-.943v-1.44a4.822,4.822,0,0,0,1.613-3.6v-1.613a4.839,4.839,0,1,0-9.677,0v1.613a4.825,4.825,0,0,0,1.613,3.6v1.441l-3.306.943a3.238,3.238,0,0,0-2.339,3.1v3.014H5.645v4.839H7.258v12.9H0V157.9H50V156.29Zm-7.181-12.9v-3.7l5.714-5.714a2.526,2.526,0,0,0,.714-1.547,1.312,1.312,0,0,1,.023.168v9.985A2.423,2.423,0,0,1,37.9,145H31.452v-1.613Zm-2.419,6.452h4.109l.645,6.452H31.452Zm5.73,0h1.605l.645,6.452H37.826Zm4.754-7.258v-7.258h1.613v8.871a4.037,4.037,0,0,1-4.032,4.032H31.452v-1.613H37.9A4.037,4.037,0,0,0,41.935,142.581Zm-8.065-16.129v-1.613a3.226,3.226,0,1,1,6.452,0v1.613a3.226,3.226,0,1,1-6.452,0Zm-2.085,10.484,5.381-5.381a.9.9,0,0,1,1.279,1.279l-5.714,5.714H24.194a.806.806,0,1,1,0-1.613Zm-17.269-12.1a3.226,3.226,0,1,1,6.452,0v1.613a3.226,3.226,0,1,1-6.452,0Zm3.226,6.452a4.815,4.815,0,0,0,1.613-.282v.866a2.062,2.062,0,0,1-1.613,1.029,2.062,2.062,0,0,1-1.613-1.029v-.866A4.815,4.815,0,0,0,17.742,131.29Zm-7.258,4.244a1.62,1.62,0,0,1,1.17-1.551l3.322-.949a3.512,3.512,0,0,0,2.766,1.481,3.511,3.511,0,0,0,2.766-1.482l3.322.949a1.607,1.607,0,0,1,1.135,1.339h-.772a2.423,2.423,0,0,0-2.419,2.419,2.386,2.386,0,0,0,.148.806H10.484Zm-3.226,4.626h25v1.613h-25Zm1.613,6.452H11.29V145H8.871v-1.613H29.839V145H12.9v1.613H29.839v9.677H27.918L26.3,153.065H12.4l-1.613,3.226H8.871Zm17.243,9.677H12.6l.806-1.613H25.308Zm0,0" transform="translate(0 -107.903)" fill=""/>
    </symbol>
    <symbol id="menu" viewBox="0 0 384.97 384.97"> 
        <g id="Menu">
            <path d="M12.03,84.212h360.909c6.641,0,12.03-5.39,12.03-12.03c0-6.641-5.39-12.03-12.03-12.03H12.03
                C5.39,60.152,0,65.541,0,72.182C0,78.823,5.39,84.212,12.03,84.212z"/>
            <path d="M372.939,180.455H12.03c-6.641,0-12.03,5.39-12.03,12.03s5.39,12.03,12.03,12.03h360.909c6.641,0,12.03-5.39,12.03-12.03
                S379.58,180.455,372.939,180.455z"/>
            <path d="M372.939,300.758H12.03c-6.641,0-12.03,5.39-12.03,12.03c0,6.641,5.39,12.03,12.03,12.03h360.909
                c6.641,0,12.03-5.39,12.03-12.03C384.97,306.147,379.58,300.758,372.939,300.758z"/>
        </g>
    </symbol>
    <symbol id="phone" viewBox="0 0 473.806 473.806">    
        <g>
            <path d="M374.456,293.506c-9.7-10.1-21.4-15.5-33.8-15.5c-12.3,0-24.1,5.3-34.2,15.4l-31.6,31.5c-2.6-1.4-5.2-2.7-7.7-4
                c-3.6-1.8-7-3.5-9.9-5.3c-29.6-18.8-56.5-43.3-82.3-75c-12.5-15.8-20.9-29.1-27-42.6c8.2-7.5,15.8-15.3,23.2-22.8
                c2.8-2.8,5.6-5.7,8.4-8.5c21-21,21-48.2,0-69.2l-27.3-27.3c-3.1-3.1-6.3-6.3-9.3-9.5c-6-6.2-12.3-12.6-18.8-18.6
                c-9.7-9.6-21.3-14.7-33.5-14.7s-24,5.1-34,14.7c-0.1,0.1-0.1,0.1-0.2,0.2l-34,34.3c-12.8,12.8-20.1,28.4-21.7,46.5
                c-2.4,29.2,6.2,56.4,12.8,74.2c16.2,43.7,40.4,84.2,76.5,127.6c43.8,52.3,96.5,93.6,156.7,122.7c23,10.9,53.7,23.8,88,26
                c2.1,0.1,4.3,0.2,6.3,0.2c23.1,0,42.5-8.3,57.7-24.8c0.1-0.2,0.3-0.3,0.4-0.5c5.2-6.3,11.2-12,17.5-18.1c4.3-4.1,8.7-8.4,13-12.9
                c9.9-10.3,15.1-22.3,15.1-34.6c0-12.4-5.3-24.3-15.4-34.3L374.456,293.506z M410.256,398.806
                C410.156,398.806,410.156,398.906,410.256,398.806c-3.9,4.2-7.9,8-12.2,12.2c-6.5,6.2-13.1,12.7-19.3,20
                c-10.1,10.8-22,15.9-37.6,15.9c-1.5,0-3.1,0-4.6-0.1c-29.7-1.9-57.3-13.5-78-23.4c-56.6-27.4-106.3-66.3-147.6-115.6
                c-34.1-41.1-56.9-79.1-72-119.9c-9.3-24.9-12.7-44.3-11.2-62.6c1-11.7,5.5-21.4,13.8-29.7l34.1-34.1c4.9-4.6,10.1-7.1,15.2-7.1
                c6.3,0,11.4,3.8,14.6,7c0.1,0.1,0.2,0.2,0.3,0.3c6.1,5.7,11.9,11.6,18,17.9c3.1,3.2,6.3,6.4,9.5,9.7l27.3,27.3
                c10.6,10.6,10.6,20.4,0,31c-2.9,2.9-5.7,5.8-8.6,8.6c-8.4,8.6-16.4,16.6-25.1,24.4c-0.2,0.2-0.4,0.3-0.5,0.5
                c-8.6,8.6-7,17-5.2,22.7c0.1,0.3,0.2,0.6,0.3,0.9c7.1,17.2,17.1,33.4,32.3,52.7l0.1,0.1c27.6,34,56.7,60.5,88.8,80.8
                c4.1,2.6,8.3,4.7,12.3,6.7c3.6,1.8,7,3.5,9.9,5.3c0.4,0.2,0.8,0.5,1.2,0.7c3.4,1.7,6.6,2.5,9.9,2.5c8.3,0,13.5-5.2,15.2-6.9
                l34.2-34.2c3.4-3.4,8.8-7.5,15.1-7.5c6.2,0,11.3,3.9,14.4,7.3c0.1,0.1,0.1,0.1,0.2,0.2l55.1,55.1
                C420.456,377.706,420.456,388.206,410.256,398.806z"/>
            <path d="M256.056,112.706c26.2,4.4,50,16.8,69,35.8s31.3,42.8,35.8,69c1.1,6.6,6.8,11.2,13.3,11.2c0.8,0,1.5-0.1,2.3-0.2
                c7.4-1.2,12.3-8.2,11.1-15.6c-5.4-31.7-20.4-60.6-43.3-83.5s-51.8-37.9-83.5-43.3c-7.4-1.2-14.3,3.7-15.6,11
                S248.656,111.506,256.056,112.706z"/>
            <path d="M473.256,209.006c-8.9-52.2-33.5-99.7-71.3-137.5s-85.3-62.4-137.5-71.3c-7.3-1.3-14.2,3.7-15.5,11
                c-1.2,7.4,3.7,14.3,11.1,15.6c46.6,7.9,89.1,30,122.9,63.7c33.8,33.8,55.8,76.3,63.7,122.9c1.1,6.6,6.8,11.2,13.3,11.2
                c0.8,0,1.5-0.1,2.3-0.2C469.556,223.306,474.556,216.306,473.256,209.006z"/>
	    </g>    
    </symbol>
    <symbol id="phone-1" viewBox="0 0 512 512">
        <path d="M391,480c-19.52,0-46.94-7.06-88-30-49.93-28-88.55-53.85-138.21-103.38C116.91,298.77,93.61,267.79,61,208.45c-36.84-67-30.56-102.12-23.54-117.13C45.82,73.38,58.16,62.65,74.11,52A176.3,176.3,0,0,1,102.75,36.8c1-.43,1.93-.84,2.76-1.21,4.95-2.23,12.45-5.6,21.95-2,6.34,2.38,12,7.25,20.86,16,18.17,17.92,43,57.83,52.16,77.43,6.15,13.21,10.22,21.93,10.23,31.71,0,11.45-5.76,20.28-12.75,29.81-1.31,1.79-2.61,3.5-3.87,5.16-7.61,10-9.28,12.89-8.18,18.05,2.23,10.37,18.86,41.24,46.19,68.51s57.31,42.85,67.72,45.07c5.38,1.15,8.33-.59,18.65-8.47,1.48-1.13,3-2.3,4.59-3.47,10.66-7.93,19.08-13.54,30.26-13.54h.06c9.73,0,18.06,4.22,31.86,11.18,18,9.08,59.11,33.59,77.14,51.78,8.77,8.84,13.66,14.48,16.05,20.81,3.6,9.53.21,17-2,22-.37.83-.78,1.74-1.21,2.75a176.49,176.49,0,0,1-15.29,28.58c-10.63,15.9-21.4,28.21-39.38,36.58A67.42,67.42,0,0,1,391,480Z"/>
    </symbol>
    <symbol id="left-arrow" viewBox="0 0 492 492">
        <g>
		    <path d="M198.608,246.104L382.664,62.04c5.068-5.056,7.856-11.816,7.856-19.024c0-7.212-2.788-13.968-7.856-19.032l-16.128-16.12
			C361.476,2.792,354.712,0,347.504,0s-13.964,2.792-19.028,7.864L109.328,227.008c-5.084,5.08-7.868,11.868-7.848,19.084
			c-0.02,7.248,2.76,14.028,7.848,19.112l218.944,218.932c5.064,5.072,11.82,7.864,19.032,7.864c7.208,0,13.964-2.792,19.032-7.864
			l16.124-16.12c10.492-10.492,10.492-27.572,0-38.06L198.608,246.104z"/>
	    </g>
    </symbol>
    <symbol id="right-arrow" viewBox="0 0 492.004 492.004">
        <g>
            <path d="M382.678,226.804L163.73,7.86C158.666,2.792,151.906,0,144.698,0s-13.968,2.792-19.032,7.86l-16.124,16.12
                c-10.492,10.504-10.492,27.576,0,38.064L293.398,245.9l-184.06,184.06c-5.064,5.068-7.86,11.824-7.86,19.028
                c0,7.212,2.796,13.968,7.86,19.04l16.124,16.116c5.068,5.068,11.824,7.86,19.032,7.86s13.968-2.792,19.032-7.86L382.678,265
                c5.076-5.084,7.864-11.872,7.848-19.088C390.542,238.668,387.754,231.884,382.678,226.804z"/>
	    </g>
    </symbol>
    <symbol id="plus" viewBox="0 0 330 330">
        <g>
            <path d="M281.672,48.328C250.508,17.163,209.073,0,164.999,0C120.927,0,79.492,17.163,48.328,48.328
                c-64.333,64.334-64.333,169.011,0,233.345C79.492,312.837,120.927,330,165,330c44.073,0,85.508-17.163,116.672-48.328
                C346.005,217.339,346.005,112.661,281.672,48.328z M260.46,260.46C234.961,285.957,201.06,300,165,300
                c-36.06,0-69.961-14.043-95.46-39.54c-52.636-52.637-52.636-138.282,0-190.919C95.039,44.042,128.94,30,164.999,30
                c36.06,0,69.961,14.042,95.46,39.54C313.095,122.177,313.095,207.823,260.46,260.46z"/>
            <path d="M254.999,150H180V75c0-8.284-6.716-15-15-15s-15,6.716-15,15v75H75c-8.284,0-15,6.716-15,15s6.716,15,15,15h75v75
                c0,8.284,6.716,15,15,15s15-6.716,15-15v-75h74.999c8.284,0,15-6.716,15-15S263.284,150,254.999,150z"/>
        </g>    
    </symbol>
    <symbol id="minus" viewBox="0 0 251.882 251.882">
        <path d="M215.037,36.846c-49.129-49.128-129.063-49.128-178.191,0c-49.127,49.127-49.127,129.063,0,178.19
		c24.564,24.564,56.83,36.846,89.096,36.846s64.531-12.282,89.096-36.846C264.164,165.909,264.164,85.973,215.037,36.846z
		 M49.574,202.309c-42.109-42.109-42.109-110.626,0-152.735c21.055-21.054,48.711-31.582,76.367-31.582s55.313,10.527,76.367,31.582
		c42.109,42.109,42.109,110.626,0,152.735C160.199,244.417,91.683,244.417,49.574,202.309z"/>
        <path d="M194.823,116.941H57.059c-4.971,0-9,4.029-9,9s4.029,9,9,9h137.764c4.971,0,9-4.029,9-9S199.794,116.941,194.823,116.941z"
            />
    </symbol>
    <symbol id="message" viewBox="0 0 60 60">  
        <g>
            <polygon points="32.062,42.977 60,58.343 60,27.527 	"/>
            <path d="M29.989,41.837l0.01-0.005L8,29.701v-0.024l22,12.13l24-13.232v-0.015l5.12-2.831L54,20.962V6.984H40.598l-8.056-6
                c-1.385-1.289-3.698-1.29-5.085,0.001l-8.055,5.999H6v13.978L0.813,25.79L29.989,41.837z M8,8.984h8.717h26.566H52V19.1v8.293
                L30,39.524L8,27.393V19.1V8.984z"/>
            <polygon points="0,59.984 58.835,59.984 0,27.624 	"/>
            <path d="M27,13.984h6c0.553,0,1-0.447,1-1s-0.447-1-1-1h-6c-0.553,0-1,0.447-1,1S26.447,13.984,27,13.984z"/>
            <path d="M42,26.984h-7c-0.553,0-1,0.447-1,1s0.447,1,1,1h7c0.553,0,1-0.447,1-1S42.553,26.984,42,26.984z"/>
            <path d="M17,20.984h5c0.553,0,1-0.447,1-1s-0.447-1-1-1h-5c-0.553,0-1,0.447-1,1S16.447,20.984,17,20.984z"/>
            <path d="M29,19.984c0,0.553,0.447,1,1,1h8c0.553,0,1-0.447,1-1s-0.447-1-1-1h-8C29.447,18.984,29,19.431,29,19.984z"/>
            <path d="M26,20.984c0.26,0,0.52-0.11,0.71-0.29c0.18-0.19,0.29-0.45,0.29-0.71c0-0.271-0.11-0.521-0.29-0.71
                c-0.38-0.37-1.05-0.37-1.42,0c-0.181,0.189-0.29,0.439-0.29,0.71c0,0.26,0.109,0.52,0.29,0.71
                C25.479,20.873,25.74,20.984,26,20.984z"/>
            <path d="M31,26.984H21c-0.553,0-1,0.447-1,1s0.447,1,1,1h10c0.553,0,1-0.447,1-1S31.553,26.984,31,26.984z"/>
            <path d="M17,28.984c0.26,0,0.52-0.11,0.71-0.29c0.18-0.19,0.29-0.45,0.29-0.71s-0.11-0.521-0.29-0.71c-0.38-0.37-1.04-0.37-1.42,0
                c-0.181,0.18-0.29,0.439-0.29,0.71c0,0.27,0.109,0.52,0.29,0.71C16.479,28.883,16.729,28.984,17,28.984z"/>
            <path d="M42,20.984c0.26,0,0.52-0.11,0.71-0.29c0.18-0.19,0.29-0.45,0.29-0.71s-0.11-0.521-0.29-0.71c-0.38-0.37-1.05-0.37-1.42,0
                c-0.181,0.189-0.29,0.439-0.29,0.71c0,0.26,0.109,0.52,0.29,0.71C41.479,20.873,41.74,20.984,42,20.984z"/>
        </g>  
    </symbol>
    <symbol id="lamp" viewBox="0 0 486 486">
        <g>
            <path id="XMLID_49_" d="M298.4,424.7v14.2c0,11.3-8.3,20.7-19.1,22.3l-3.5,12.9c-1.9,7-8.2,11.9-15.5,11.9h-34.7
                c-7.3,0-13.6-4.9-15.5-11.9l-3.4-12.9c-10.9-1.7-19.2-11-19.2-22.4v-14.2c0-7.6,6.1-13.7,13.7-13.7h83.5
                C292.3,411,298.4,417.1,298.4,424.7z M362.7,233.3c0,32.3-12.8,61.6-33.6,83.1c-15.8,16.4-26,37.3-29.4,59.6
                c-1.5,9.6-9.8,16.7-19.6,16.7h-74.3c-9.7,0-18.1-7-19.5-16.6c-3.5-22.3-13.8-43.5-29.6-59.8c-20.4-21.2-33.1-50-33.4-81.7
                c-0.7-66.6,52.3-120.5,118.9-121C308.7,113.1,362.7,166.9,362.7,233.3z M256.5,160.8c0-7.4-6-13.5-13.5-13.5
                c-47.6,0-86.4,38.7-86.4,86.4c0,7.4,6,13.5,13.5,13.5c7.4,0,13.5-6,13.5-13.5c0-32.8,26.7-59.4,59.4-59.4
                C250.5,174.3,256.5,168.3,256.5,160.8z M243,74.3c7.4,0,13.5-6,13.5-13.5V13.5c0-7.4-6-13.5-13.5-13.5s-13.5,6-13.5,13.5v47.3
                C229.5,68.3,235.6,74.3,243,74.3z M84.1,233.2c0-7.4-6-13.5-13.5-13.5H23.3c-7.4,0-13.5,6-13.5,13.5c0,7.4,6,13.5,13.5,13.5h47.3
                C78.1,246.7,84.1,240.7,84.1,233.2z M462.7,219.7h-47.3c-7.4,0-13.5,6-13.5,13.5c0,7.4,6,13.5,13.5,13.5h47.3
                c7.4,0,13.5-6,13.5-13.5C476.2,225.8,470.2,219.7,462.7,219.7z M111.6,345.6l-33.5,33.5c-5.3,5.3-5.3,13.8,0,19.1
                c2.6,2.6,6.1,3.9,9.5,3.9s6.9-1.3,9.5-3.9l33.5-33.5c5.3-5.3,5.3-13.8,0-19.1C125.4,340.3,116.8,340.3,111.6,345.6z M364.9,124.8
                c3.4,0,6.9-1.3,9.5-3.9l33.5-33.5c5.3-5.3,5.3-13.8,0-19.1c-5.3-5.3-13.8-5.3-19.1,0l-33.5,33.5c-5.3,5.3-5.3,13.8,0,19.1
                C358,123.5,361.4,124.8,364.9,124.8z M111.6,120.8c2.6,2.6,6.1,3.9,9.5,3.9s6.9-1.3,9.5-3.9c5.3-5.3,5.3-13.8,0-19.1L97.1,68.2
                c-5.3-5.3-13.8-5.3-19.1,0c-5.3,5.3-5.3,13.8,0,19.1L111.6,120.8z M374.4,345.6c-5.3-5.3-13.8-5.3-19.1,0c-5.3,5.3-5.3,13.8,0,19.1
                l33.5,33.5c2.6,2.6,6.1,3.9,9.5,3.9s6.9-1.3,9.5-3.9c5.3-5.3,5.3-13.8,0-19.1L374.4,345.6z"/>
        </g>
    </symbol>
    <symbol id="location" viewBox="0 0 12 16.001"> 
        <path id="Path_12135" data-name="Path 12135" class="cls-1" d="M-6-14a6,6,0,0,0-6,6c0,2.419.843,3.095,5.384,9.678a.75.75,0,0,0,1.233,0C-.844-4.906,0-5.581,0-8A6,6,0,0,0-6-14Zm0,8.472a2.5,2.5,0,0,1-2.5-2.5,2.5,2.5,0,0,1,2.5-2.5,2.5,2.5,0,0,1,2.5,2.5A2.5,2.5,0,0,1-6-5.528Z" transform="translate(12 14)"/>
    </symbol>
    <symbol id="american-flag" viewBox="0 0 512 512"> 
        <circle style="fill:#F0F0F0;" cx="256" cy="256" r="256"/>
        <g>
            <path style="fill:#D80027;" d="M244.87,256H512c0-23.106-3.08-45.49-8.819-66.783H244.87V256z"/>
            <path style="fill:#D80027;" d="M244.87,122.435h229.556c-15.671-25.572-35.708-48.175-59.07-66.783H244.87V122.435z"/>
            <path style="fill:#D80027;" d="M256,512c60.249,0,115.626-20.824,159.356-55.652H96.644C140.374,491.176,195.751,512,256,512z"/>
            <path style="fill:#D80027;" d="M37.574,389.565h436.852c12.581-20.529,22.338-42.969,28.755-66.783H8.819
                C15.236,346.596,24.993,369.036,37.574,389.565z"/>
        </g>
        <path style="fill:#0052B4;" d="M118.584,39.978h23.329l-21.7,15.765l8.289,25.509l-21.699-15.765L85.104,81.252l7.16-22.037
            C73.158,75.13,56.412,93.776,42.612,114.552h7.475l-13.813,10.035c-2.152,3.59-4.216,7.237-6.194,10.938l6.596,20.301l-12.306-8.941
            c-3.059,6.481-5.857,13.108-8.372,19.873l7.267,22.368h26.822l-21.7,15.765l8.289,25.509l-21.699-15.765l-12.998,9.444
            C0.678,234.537,0,245.189,0,256h256c0-141.384,0-158.052,0-256C205.428,0,158.285,14.67,118.584,39.978z M128.502,230.4
            l-21.699-15.765L85.104,230.4l8.289-25.509l-21.7-15.765h26.822l8.288-25.509l8.288,25.509h26.822l-21.7,15.765L128.502,230.4z
            M120.213,130.317l8.289,25.509l-21.699-15.765l-21.699,15.765l8.289-25.509l-21.7-15.765h26.822l8.288-25.509l8.288,25.509h26.822
            L120.213,130.317z M220.328,230.4l-21.699-15.765L176.93,230.4l8.289-25.509l-21.7-15.765h26.822l8.288-25.509l8.288,25.509h26.822
            l-21.7,15.765L220.328,230.4z M212.039,130.317l8.289,25.509l-21.699-15.765l-21.699,15.765l8.289-25.509l-21.7-15.765h26.822
            l8.288-25.509l8.288,25.509h26.822L212.039,130.317z M212.039,55.743l8.289,25.509l-21.699-15.765L176.93,81.252l8.289-25.509
            l-21.7-15.765h26.822l8.288-25.509l8.288,25.509h26.822L212.039,55.743z"/>
    </symbol>
    <symbol id="soudi-flag" viewBox="0 0 512 512"> 
        <circle style="fill:#6DA544;" cx="256" cy="256" r="256"/>
        <g>
            <path style="fill:#F0F0F0;" d="M144.696,306.087c0,18.441,14.95,33.391,33.391,33.391h100.174
                c0,15.368,12.458,27.826,27.826,27.826h33.391c15.368,0,27.826-12.458,27.826-27.826v-33.391H144.696z"/>
            <path style="fill:#F0F0F0;" d="M370.087,144.696v77.913c0,12.275-9.986,22.261-22.261,22.261v33.391
                c30.687,0,55.652-24.966,55.652-55.652v-77.913H370.087z"/>
            <path style="fill:#F0F0F0;" d="M130.783,222.609c0,12.275-9.986,22.261-22.261,22.261v33.391c30.687,0,55.652-24.966,55.652-55.652
                v-77.913h-33.391V222.609z"/>
            <rect x="320" y="144.696" style="fill:#F0F0F0;" width="33.391" height="77.913"/>
            <path style="fill:#F0F0F0;" d="M269.913,189.217c0,3.069-2.497,5.565-5.565,5.565s-5.565-2.497-5.565-5.565v-44.522h-33.391v44.522
                c0,3.069-2.497,5.565-5.565,5.565s-5.565-2.497-5.565-5.565v-44.522H180.87v44.522c0,21.481,17.476,38.957,38.957,38.957
                c8.273,0,15.945-2.6,22.261-7.016c6.315,4.415,13.988,7.016,22.261,7.016c1.666,0,3.304-0.117,4.915-0.322
                c-2.366,9.749-11.146,17.017-21.611,17.017v33.391c30.687,0,55.652-24.966,55.652-55.652v-33.391v-44.522h-33.391V189.217z"/>
            <rect x="180.87" y="244.87" style="fill:#F0F0F0;" width="50.087" height="33.391"/>
    </symbol>

     <!--  -->
    <!-- <symbol id="law" viewBox="0 0 24 24"> 
        <path fill-rule="evenodd" d="M12.75 2.75a.75.75 0 00-1.5 0V4.5H9.276a1.75 1.75 0 00-.985.303L6.596 5.957A.25.25 0 016.455 6H2.353a.75.75 0 100 1.5H3.93L.563 15.18a.762.762 0 00.21.88c.08.064.161.125.309.221.186.121.452.278.792.433.68.311 1.662.62 2.876.62a6.919 6.919 0 002.876-.62c.34-.155.606-.312.792-.433.15-.097.23-.158.31-.223a.75.75 0 00.209-.878L5.569 7.5h.886c.351 0 .694-.106.984-.303l1.696-1.154A.25.25 0 019.275 6h1.975v14.5H6.763a.75.75 0 000 1.5h10.474a.75.75 0 000-1.5H12.75V6h1.974c.05 0 .1.015.14.043l1.697 1.154c.29.197.633.303.984.303h.886l-3.368 7.68a.75.75 0 00.23.896c.012.009 0 0 .002 0a3.154 3.154 0 00.31.206c.185.112.45.256.79.4a7.343 7.343 0 002.855.568 7.343 7.343 0 002.856-.569c.338-.143.604-.287.79-.399a3.5 3.5 0 00.31-.206.75.75 0 00.23-.896L20.07 7.5h1.578a.75.75 0 000-1.5h-4.102a.25.25 0 01-.14-.043l-1.697-1.154a1.75 1.75 0 00-.984-.303H12.75V2.75zM2.193 15.198a5.418 5.418 0 002.557.635 5.418 5.418 0 002.557-.635L4.75 9.368l-2.557 5.83zm14.51-.024c.082.04.174.083.275.126.53.223 1.305.45 2.272.45a5.846 5.846 0 002.547-.576L19.25 9.367l-2.547 5.807z"/>
    </symbol>  -->
    
</svg>